<svg xmlns="http://www.w3.org/2000/svg" width="450" height="195" viewBox="0 0 450 195" role="img" aria-labelledby="title desc"><title id="title">Top languages</title><desc id="desc">Languages used across public repositories.</desc><rect width="450" height="195" rx="10" fill="#000" stroke="#fff"/><rect x="0" y="0" width="6" height="195" rx="3" fill="#00e5ff"/><text x="26" y="36" fill="#fff" font-family="Arial, sans-serif" font-size="19" font-weight="700">TOP LANGUAGES</text><path d="M26 52H424" stroke="#333"/><text x="32" y="70" fill="#d1d5db" font-family="Arial, sans-serif" font-size="12" font-weight="700">Go</text><text x="418" y="70" text-anchor="end" fill="#8a9aa5" font-family="Arial, sans-serif" font-size="11" font-weight="700">79%</text><rect x="32" y="75" width="386" height="6" rx="3" fill="#162329"/><rect x="32" y="75" width="304.94" height="6" rx="3" fill="#00e5ff"/><text x="32" y="94" fill="#d1d5db" font-family="Arial, sans-serif" font-size="12" font-weight="700">HTML</text><text x="418" y="94" text-anchor="end" fill="#8a9aa5" font-family="Arial, sans-serif" font-size="11" font-weight="700">12%</text><rect x="32" y="99" width="386" height="6" rx="3" fill="#162329"/><rect x="32" y="99" width="46.32" height="6" rx="3" fill="#00e5ff"/><text x="32" y="118" fill="#d1d5db" font-family="Arial, sans-serif" font-size="12" font-weight="700">JavaScript</text><text x="418" y="118" text-anchor="end" fill="#8a9aa5" font-family="Arial, sans-serif" font-size="11" font-weight="700">4%</text><rect x="32" y="123" width="386" height="6" rx="3" fill="#162329"/><rect x="32" y="123" width="15.44" height="6" rx="3" fill="#00e5ff"/><text x="32" y="142" fill="#d1d5db" font-family="Arial, sans-serif" font-size="12" font-weight="700">CSS</text><text x="418" y="142" text-anchor="end" fill="#8a9aa5" font-family="Arial, sans-serif" font-size="11" font-weight="700">3%</text><rect x="32" y="147" width="386" height="6" rx="3" fill="#162329"/><rect x="32" y="147" width="11.58" height="6" rx="3" fill="#00e5ff"/><text x="32" y="166" fill="#d1d5db" font-family="Arial, sans-serif" font-size="12" font-weight="700">Python</text><text x="418" y="166" text-anchor="end" fill="#8a9aa5" font-family="Arial, sans-serif" font-size="11" font-weight="700">2%</text><rect x="32" y="171" width="386" height="6" rx="3" fill="#162329"/><rect x="32" y="171" width="7.72" height="6" rx="3" fill="#00e5ff"/></svg>
